<svg width="181" height="28" viewBox="0 0 181 28" fill="none" xmlns="http://www.w3.org/2000/svg">
<path d="M10.9101 8.49635C17.0872 8.49635 21.5956 12.4964 21.5956 18.219C21.5956 23.9416 17.0287 28 10.9101 28C4.79158 28 0.166077 24.0876 0.166077 18.219C0.166077 12.4964 4.70376 8.49635 10.9101 8.49635ZM35.238 9.0219C38.0191 9.0219 40.6246 10.1314 41.5322 12.4672C42.9374 10.1898 45.3965 8.87591 47.9727 9.0219C52.7446 9.0219 56.7846 10.9197 56.7846 18.4818V28.0292H51.4858V18.4526C51.4858 14.6861 50.0513 13.3139 47.9142 13.2555C44.9867 13.2555 43.4643 15.5036 43.4643 18.5985V28.0292H38.224V18.5693C38.224 14.8029 36.8774 13.2555 34.7403 13.2263C32.3397 13.2263 30.2026 14.7153 30.2026 18.7737V28.0292H24.9038V9.34307H29.2951L29.7342 11.6204C31.0223 9.83942 33.1009 8.87591 35.238 9.0219ZM93.5252 8.9927C98.2971 8.9927 103.45 11.1825 103.45 18.4526V28H98.1214V18.3358C98.2971 17.0219 97.9165 15.708 97.0383 14.7153C96.1893 13.7518 94.9597 13.1971 93.6716 13.2555C92.3542 13.1387 91.0368 13.635 90.0707 14.6277C89.1339 15.5912 88.607 16.9635 88.6948 18.3358V28H83.4252V9.31387H87.9336L88.402 11.5912C89.6316 9.92701 91.5052 8.9635 93.5252 8.9927ZM159.395 9.0219C162.147 9.0219 164.811 10.1314 165.777 12.4672C167.153 10.219 169.583 8.90511 172.159 9.0219C176.96 9.0219 180.971 10.9197 180.971 18.4818V28.0292H175.73V18.4526C175.73 14.6861 174.296 13.3139 172.159 13.2555C169.231 13.2555 167.68 15.5036 167.68 18.5985V28.0292H162.439V18.5401C162.439 14.7737 161.093 13.2263 158.956 13.1971C156.555 13.1971 154.389 14.6861 154.389 18.7445V28H149.119V9.34307H153.51L153.95 11.6204C155.238 9.86861 157.287 8.87591 159.395 9.0219ZM113.989 0V8.78832H120.898V12.6131H113.989V19.6788C113.989 20.9343 114.545 22.1314 115.511 22.8905C116.419 23.6204 117.619 23.8832 118.731 23.5912L118.878 23.562L122.01 26.7445L121.776 26.8613C120.371 27.5912 118.848 27.9708 117.268 28C111.881 27.9124 108.953 24.5839 108.895 19.854V19.6788V12.6131H105.352V8.78832H108.895V0H113.989ZM144.347 9.34307V27.708H139.839L139.341 25.4307C138.17 27.0949 136.267 28.0584 134.277 28.0292C129.534 28.0876 124.469 25.8686 124.352 18.7737V18.5693V8.9927L129.68 14.365V18.6569C129.505 19.9708 129.885 21.2847 130.763 22.2774C131.612 23.2409 132.842 23.7956 134.13 23.7372C135.448 23.854 136.765 23.3285 137.702 22.365C138.609 21.4307 139.107 20.146 139.078 18.8321V18.6861V9.34307H144.347ZM69.9585 8.49635C76.6041 8.49635 80.6148 13.1971 80.0586 20.1752H64.9817C65.5087 22.9489 68.0556 23.7372 70.2806 23.7372C71.0417 23.7372 71.8322 23.6496 72.5641 23.4453L75.7551 26.6277C73.9107 27.5912 71.8907 28.0876 69.8414 28C63.8985 28 59.6536 24.0292 59.6536 18.2482C59.6536 12.4672 63.9278 8.49635 69.9585 8.49635ZM6.22608 15.4745C5.23071 17.1679 5.23071 19.2993 6.22608 21.0219C7.22144 22.7153 9.03651 23.7372 10.9687 23.6204C12.3739 23.6788 13.7206 23.1241 14.6867 22.1022C15.682 21.0803 16.209 19.708 16.1797 18.2482H16.2675C16.2968 16.7883 15.7406 15.3869 14.7452 14.365C13.7498 13.3431 12.3739 12.8175 10.9687 12.8759C9.03651 12.7883 7.22144 13.781 6.22608 15.4745ZM75.111 16.3212C74.4084 14.0438 72.3006 12.6131 70.0171 12.8175C67.7629 12.6131 65.6843 14.0438 64.9817 16.3212H75.111Z" fill="black"/>
</svg>
