<svg width="380" height="267" viewBox="0 0 380 267" fill="none" xmlns="http://www.w3.org/2000/svg">
<path fill-rule="evenodd" clip-rule="evenodd" d="M171.7 225.092C149.512 231.599 111.263 234.279 62.515 234.741C17.2763 235.502 -0.777483 240.666 0.0255697 249.216C5.46848 262.409 80.3606 267.997 208.73 266.22C314.703 264.866 363.987 256.114 378.055 242.128C399.381 218.086 239.752 205.453 171.7 225.092Z" fill="url(#paint0_linear_20_560)"/>
<path opacity="0.1" d="M85.1973 43.5449H264.257V237.394H85.1973V43.5449Z" fill="#7BD53D"/>
<path d="M349.661 240.321V222.957H342.482L346.789 240.321H349.661Z" fill="#292678"/>
<path d="M322.032 240.321V222.957H329.567L325.044 240.321H322.032Z" fill="#292678"/>
<path d="M315.565 153.501H350.413C350.23 138.231 350.872 125.251 351.563 116.059C351.913 111.412 352.276 107.732 352.551 105.213C352.688 103.954 352.804 102.985 352.886 102.33C352.917 102.078 352.943 101.872 352.964 101.715L339.37 96.0532H328.364L313.78 103.647L315.565 153.501Z" fill="white" stroke="black"/>
<path d="M334.649 115.39L334.65 115.392C334.936 116.617 335.275 117.926 335.665 119.281L335.665 119.282C337.571 125.933 340.601 133.696 343.902 138.984C345.56 141.639 347.247 143.605 348.843 144.527C349.631 144.983 350.369 145.167 351.057 145.085C351.742 145.005 352.443 144.654 353.149 143.918L353.149 143.917C356.779 140.139 358.635 133.822 359.569 127.507C360.499 121.216 360.5 115.041 360.5 111.631C360.5 108.419 358.738 105.986 356.918 104.329C356.012 103.503 355.103 102.882 354.421 102.468C354.216 102.343 354.032 102.237 353.875 102.151C353.24 105.675 352.74 111.884 352.394 117.381C352.21 120.3 352.07 123.007 351.976 124.983C351.929 125.972 351.893 126.778 351.869 127.336C351.857 127.615 351.848 127.833 351.842 127.98L351.836 128.148L351.834 128.191L351.834 128.202L351.834 128.205L351.834 128.205C351.834 128.205 351.834 128.205 351.334 128.186L351.834 128.205L351.764 130.004L350.896 128.427L342.044 112.358L342.044 112.357L340.637 109.8L333.954 111.974C334.125 113.011 334.359 114.167 334.649 115.39Z" fill="white" stroke="black"/>
<path d="M338.024 134.716L338.024 134.716L314.251 132.474L313.814 132.433L313.798 131.994L312.817 104.52C312.725 104.621 312.625 104.731 312.519 104.852C311.843 105.622 310.911 106.816 309.904 108.494C307.889 111.848 305.571 117.144 304.408 124.871C303.244 132.607 304.431 137.158 306.906 139.789C309.391 142.43 313.303 143.279 317.947 143.279H338.071H338.082H338.094H338.106H338.117H338.129H338.14H338.152H338.164H338.175H338.187H338.198H338.21H338.221H338.232H338.244H338.255H338.267H338.278H338.289H338.301H338.312H338.323H338.335H338.346H338.357H338.369H338.38H338.391H338.402H338.413H338.425H338.436H338.447H338.458H338.469H338.48H338.491H338.502H338.513H338.524H338.535H338.546H338.557H338.568H338.579H338.59H338.601H338.612H338.623H338.633H338.644H338.655H338.666H338.677H338.687H338.698H338.709H338.719H338.73H338.741H338.751H338.762H338.773H338.783H338.794H338.804H338.815H338.825H338.836H338.846H338.857H338.867H338.878H338.888H338.899H338.909H338.919H338.93H338.94H338.95H338.961H338.971H338.981H338.991H339.002H339.012H339.022H339.032H339.042H339.052H339.062H339.072H339.083H339.093H339.103H339.113H339.123H339.133H339.143H339.152H339.162H339.172H339.182H339.192H339.202H339.212H339.222H339.231H339.241H339.251H339.261H339.27H339.28H339.29H339.299H339.309H339.319H339.328H339.338H339.347H339.357H339.366H339.376H339.385H339.395H339.404H339.414H339.423H339.432H339.442H339.451H339.46H339.47H339.479H339.488H339.497H339.507H339.516H339.525H339.534H339.543H339.553H339.562H339.571H339.58H339.589H339.598H339.607H339.616H339.625H339.634H339.643H339.652H339.661H339.669H339.678H339.687H339.696H339.705H339.713H339.722H339.731H339.74H339.748H339.757H339.766H339.774H339.783H339.791H339.8H339.809H339.817H339.826H339.834H339.842H339.851H339.859H339.868H339.876H339.884H339.893H339.901H339.909H339.918H339.926H339.934H339.942H339.951H339.959H339.967H339.975H339.983H339.991H339.999H340.007H340.015H340.023H340.031H340.039H340.047H340.055H340.063H340.071H340.079H340.087H340.094H340.102H340.11H340.118H340.125H340.133H340.141H340.148H340.156H340.164H340.171H340.179H340.186H340.194H340.201H340.209H340.216H340.224H340.231H340.239H340.246H340.253H340.261H340.268H340.275H340.282H340.29H340.297H340.304H340.311H340.318H340.326H340.333H340.34H340.347H340.354H340.361H340.368H340.375H340.382H340.389H340.396H340.402H340.409H340.416H340.423H340.43H340.437H340.443H340.45H340.457H340.463H340.47H340.477H340.483H340.49H340.496H340.503H340.51H340.516H340.522H340.529H340.535H340.542H340.548H340.554H340.561H340.567H340.573H340.58H340.586H340.592H340.598H340.605H340.611H340.617H340.623H340.629H340.635H340.641H340.647H340.653H340.659H340.665H340.671H340.677H340.683H340.688H340.694H340.7H340.706H340.712H340.717H340.723H340.729H340.734H340.74H340.746H340.751H340.757H340.762H340.768H340.773H340.779H340.784H340.789H340.795H340.8H340.806H340.811H340.816H340.821H340.827H340.832H340.837H340.842H340.847H340.85V134.982L338.024 134.716Z" fill="white" stroke="black"/>
<path d="M341.349 136.467C341.349 136.467 349.772 135.982 350.238 143.77H341.349V136.467Z" fill="#F9A28B"/>
<path d="M273.028 229.013L285.151 231.447L300.169 176.897C300.169 176.897 319.286 178.361 334.933 180.795C350.572 183.229 350.246 161.798 350.246 161.798V154.009H325.281C325.281 154.009 300.724 153.077 289.259 155.665C286.35 156.32 284.285 157.206 283.678 158.393C283.22 159.286 282.657 161.551 282.028 164.748C278.52 182.497 273.028 229.013 273.028 229.013Z" fill="#292678"/>
<path d="M300.635 170.08L311.863 215.863L302.041 221.217L286.595 192.482L300.635 170.08Z" fill="#292678"/>
<path d="M175.834 225.993L175.072 232.811H183.035L183.798 226.478L175.834 225.993Z" fill="#F9A28B"/>
<path d="M202.042 226.478V232.811H209.532L209.998 226.478H202.042Z" fill="#F9A28B"/>
<path d="M221.7 102.271L211.405 228.912H200.643V122.732V102.271H221.7Z" fill="#2F70FE"/>
<path d="M213.277 102.271L204.388 117.863L184.73 228.912H172.096L187.069 102.271H213.277Z" fill="#2F70FE"/>
<path d="M186.439 60.4317C187.249 69.6258 188.008 82.6076 187.827 97.8808H221.278L223.981 48.0235L209.402 40.4326H198.397L184.81 46.0908C184.834 46.2475 184.864 46.4508 184.9 46.6993C184.994 47.3546 185.129 48.3242 185.289 49.5839C185.608 52.1035 186.03 55.7838 186.439 60.4317Z" fill="white" stroke="black"/>
<path d="M186.603 98.3804H222.632V102.764H186.603V98.3804Z" fill="#6DED02"/>
<path d="M265.323 73.6669L267.159 73.2509C267.159 73.2509 269.705 70.4467 271.067 69.3143C272.436 68.1818 272.488 69.9999 270.623 72.2417C270.623 72.2417 275.596 68.8135 277.254 71.8565C279.082 75.2153 276.203 78.0734 269.734 78.0888L267.795 78.7591L265.323 73.6669Z" fill="#F9A28B"/>
<path d="M238.443 98.3763L238.443 98.3763C238.694 98.324 239.175 98.1216 239.883 97.7495C240.574 97.3868 241.434 96.8889 242.423 96.2859C244.4 95.0804 246.871 93.4678 249.491 91.708C254.731 88.1892 260.549 84.0938 264.175 81.5177L264.176 81.5172C265.263 80.7474 266.152 80.1124 266.769 79.67C267.031 79.4827 267.243 79.3298 267.402 79.2159L264.48 72.7093L260.892 74.0205L260.891 74.0209L259.701 74.4596L259.7 74.46L239.642 81.8016L239.139 81.9857L238.99 81.4712L239.47 81.3321C238.99 81.4712 238.99 81.4711 238.99 81.4709L238.99 81.4699L238.989 81.4659L238.984 81.4495L238.965 81.3843C238.948 81.3266 238.923 81.2407 238.89 81.1284C238.823 80.9038 238.725 80.5737 238.598 80.1524C238.344 79.3096 237.973 78.1019 237.51 76.6433C236.583 73.7256 235.284 69.8067 233.797 65.7981C232.308 61.7869 230.634 57.6983 228.959 54.4359C228.121 52.8042 227.288 51.3914 226.485 50.3022C225.908 49.5196 225.365 48.9309 224.867 48.5438L219.425 81.1914C219.433 81.2015 219.442 81.212 219.451 81.223C219.561 81.3575 219.723 81.555 219.932 81.8063C220.349 82.3087 220.95 83.0259 221.687 83.8836C223.16 85.5996 225.171 87.8755 227.326 90.1194C229.485 92.3662 231.775 94.568 233.808 96.1437C234.825 96.9323 235.762 97.5517 236.575 97.9427C237.404 98.3419 238.024 98.464 238.443 98.3763Z" fill="white" stroke="black"/>
<path d="M260.727 73.5432L264.465 81.9171C266.641 80.3764 268.025 79.3749 268.025 79.3749L264.746 72.0718L260.727 73.5432Z" fill="#228652"/>
<path d="M144.334 71.2323L142.498 70.8163C142.498 70.8163 139.952 68.0122 138.59 66.8797C137.221 65.7472 137.169 67.5653 139.034 69.8071C139.034 69.8071 134.061 66.379 132.403 69.4219C130.575 72.7808 133.454 75.6389 139.923 75.6543L141.862 76.3245L144.334 71.2323Z" fill="#F9A28B"/>
<path d="M184.79 46.1097C184.292 46.4968 183.749 47.0855 183.172 47.8681C182.369 48.9573 181.536 50.3701 180.698 52.0018C179.023 55.2642 177.349 59.3528 175.86 63.3641C174.373 67.3727 173.074 71.2916 172.147 74.2093C171.684 75.6679 171.313 76.8755 171.059 77.7183C170.932 78.1397 170.834 78.4698 170.767 78.6943C170.734 78.8066 170.709 78.8925 170.692 78.9502L170.673 79.0155L170.668 79.0318L170.667 79.0359L170.667 79.0369C170.667 79.0371 170.667 79.0371 170.187 78.898L170.667 79.0371L170.518 79.5517L170.015 79.3675L149.957 72.0259L149.956 72.0255L148.766 71.5869L148.765 71.5864L145.177 70.2752L142.255 76.7819C142.414 76.8958 142.626 77.0486 142.888 77.2359C143.505 77.6784 144.394 78.3134 145.481 79.0831L145.482 79.0836C149.108 81.6597 154.926 85.7551 160.166 89.2739C162.786 91.0337 165.257 92.6463 167.234 93.8518C168.223 94.4549 169.083 94.9528 169.774 95.3155C170.482 95.6876 170.963 95.89 171.214 95.9422L171.214 95.9423C171.633 96.0299 172.253 95.9078 173.082 95.5087C173.895 95.1176 174.832 94.4982 175.849 93.7096C177.882 92.134 180.172 89.9321 182.331 87.6854C184.486 85.4415 186.497 83.1655 187.97 81.4495C188.707 80.5918 189.308 79.8747 189.725 79.3722C189.934 79.121 190.096 78.9235 190.206 78.7889C190.215 78.778 190.224 78.7675 190.232 78.7574L184.79 46.1097Z" fill="white" stroke="black"/>
<path d="M148.93 71.1091L145.192 79.4831C143.016 77.9423 141.632 76.9408 141.632 76.9408L144.911 69.6377L148.93 71.1091Z" fill="#228652"/>
<path d="M202.619 24.9409L200.303 39.8091L205.92 44.2079L209.214 41.1033L209.458 28.1765L202.619 24.9409Z" fill="#F9A28B"/>
<path d="M199.326 18.3543C199.326 18.3543 197.86 37.8756 212.877 36.0652C227.895 34.2548 216.297 11.1128 216.297 11.1128L201.524 13.8245L199.326 18.3543Z" fill="#F9A28B"/>
<path d="M201.28 21.3278C201.28 21.3278 197.372 15.8966 193.834 18.7393C190.296 21.582 192.857 29.7248 197.616 28.8235C202.375 27.9221 203.478 26.366 203.478 26.366L201.28 21.3278Z" fill="#F9A28B"/>
<path d="M202.257 26.2351L204.211 17.1832C204.211 17.1832 221.056 18.3464 225.327 13.9476C229.597 9.54878 231.063 2.70017 228.502 1.92209C225.941 1.14401 218.739 8.38552 218.739 8.38552C218.739 8.38552 219.591 -2.08385 216.297 0.373638C213.003 2.83113 212.759 7.099 212.759 7.099C212.759 7.099 199.94 7.74611 199.089 10.3346C198.238 12.923 198.97 13.5701 198.97 13.5701C198.97 13.5701 196.41 12.5378 196.04 13.8321C195.662 15.1186 202.257 26.2351 202.257 26.2351Z" fill="black"/>
<path d="M209.377 35.803L203.093 31.9126L209.073 40.4714L209.377 35.803Z" fill="#F9A28B"/>
<path d="M220.597 27.6988C220.597 27.6988 216.8 23.0765 210.368 25.6264C203.929 28.1764 202.864 21.9595 202.864 21.9595L201.709 26.5047C201.709 26.5047 200.717 29.9328 202.368 33.0451C204.018 36.1574 211.279 39.7397 211.279 39.7397C211.279 39.7397 222.573 38.3068 220.597 27.6988Z" fill="black"/>
<path d="M310.19 216.794L311.507 220.53L305.527 223.519L303.914 220.153L310.19 216.794Z" fill="#F9A28B"/>
<path d="M314.216 226.817L311.507 220.531L305.527 223.52L297.867 236.031L314.216 226.817Z" fill="#292678"/>
<path d="M306.423 227.002L302.234 225.569" stroke="#7BD53D" stroke-width="4" stroke-miterlimit="10"/>
<path d="M304.091 228.812L300.901 227.733" stroke="#7BD53D" stroke-width="4" stroke-miterlimit="10"/>
<path d="M283.16 230.923L281.961 234.906L275.382 233.419L275.981 229.428L283.16 230.923Z" fill="#F9A28B"/>
<path d="M281.961 234.906L280.326 241.508L263.821 236.94L275.382 233.419L281.961 234.906Z" fill="#292678"/>
<path d="M273.154 232.71L273.472 236.031" stroke="#7BD53D" stroke-width="4" stroke-miterlimit="10"/>
<path d="M270.837 233.542L271 236.277" stroke="#7BD53D" stroke-width="4" stroke-miterlimit="10"/>
<path d="M202.042 231.316L201.398 239.05L219.568 239.829L209.169 231.978L202.042 231.316Z" fill="#292678"/>
<path d="M211.656 231.986L210.191 235.483" stroke="#7BD53D" stroke-width="4" stroke-miterlimit="10"/>
<path d="M213.699 233.689L212.589 236.609" stroke="#7BD53D" stroke-width="4" stroke-miterlimit="10"/>
<path d="M182.747 230.876L183.776 239.905L165.42 239.682L175.56 231.208L182.747 230.876Z" fill="#292678"/>
<path d="M173.044 231.069L174.701 235.213" stroke="#7BD53D" stroke-width="4" stroke-miterlimit="10"/>
<path d="M171.06 232.918L172.326 236.377" stroke="#7BD53D" stroke-width="4" stroke-miterlimit="10"/>
<path d="M301.22 176.272L292.604 203.659L296.438 210.138L301.22 176.272Z" fill="#1A1A56"/>
<path d="M209.717 117.262L202.545 122.493L200.391 139.11L201.109 157.599L203.974 124.357L209.717 117.262Z" fill="#1A1A56"/>
<path d="M316.585 224.082H356.182C357.336 224.082 358.276 223.111 358.276 221.902V184.862C358.276 181.765 355.864 179.254 352.888 179.254H319.886C316.91 179.254 314.498 181.765 314.498 184.862V221.902C314.498 223.104 315.43 224.082 316.585 224.082Z" fill="#7BD53D"/>
<path d="M211.989 41.195L206.127 47.4196L197.275 40.4478" stroke="#228652" stroke-width="4" stroke-miterlimit="10"/>
<path d="M339.284 69.0673C339.284 69.0673 341.675 68.2353 342.874 71.0626C344.073 73.8822 341.601 80.5228 341.601 80.5228L338.574 77.1178L338.974 69.1521L339.284 69.0673Z" fill="black"/>
<path d="M332.564 100.71L337.752 96.7469L335.527 82.825L329.407 85.6474L329.648 98.0335L332.564 100.71Z" fill="white" stroke="black"/>
<mask id="path-49-inside-1_20_560" fill="white">
<path fill-rule="evenodd" clip-rule="evenodd" d="M339.335 76.4249C339.325 75.8445 339.299 75.5081 339.299 75.5081L337.042 70.9783L321.891 68.2666C321.891 68.2666 309.997 91.4085 325.4 93.2189C333.003 94.1126 336.487 89.8081 338.065 85.2197C338.854 85.4901 339.835 85.7539 341.046 85.9774C345.931 86.8787 348.566 78.7359 344.932 75.8932C342.936 74.3325 340.83 75.2658 339.335 76.4249Z"/>
</mask>
<path fill-rule="evenodd" clip-rule="evenodd" d="M339.335 76.4249C339.325 75.8445 339.299 75.5081 339.299 75.5081L337.042 70.9783L321.891 68.2666C321.891 68.2666 309.997 91.4085 325.4 93.2189C333.003 94.1126 336.487 89.8081 338.065 85.2197C338.854 85.4901 339.835 85.7539 341.046 85.9774C345.931 86.8787 348.566 78.7359 344.932 75.8932C342.936 74.3325 340.83 75.2658 339.335 76.4249Z" fill="white"/>
<path d="M339.299 75.5081L340.194 75.0621L340.281 75.2367L340.296 75.4313L339.299 75.5081ZM339.335 76.4249L339.948 77.2151L338.37 78.439L338.335 76.4424L339.335 76.4249ZM337.042 70.9783L337.218 69.994L337.713 70.0825L337.937 70.5323L337.042 70.9783ZM321.891 68.2666L321.002 67.8095L321.34 67.152L322.068 67.2822L321.891 68.2666ZM325.4 93.2189L325.283 94.2121L325.4 93.2189ZM338.065 85.2197L337.12 84.8944L337.445 83.95L338.389 84.2737L338.065 85.2197ZM341.046 85.9774L341.227 84.994H341.227L341.046 85.9774ZM344.932 75.8932L345.548 75.1055L344.932 75.8932ZM339.299 75.5081C340.296 75.4313 340.296 75.4314 340.296 75.4315C340.296 75.4315 340.296 75.4315 340.296 75.4316C340.296 75.4316 340.296 75.4317 340.296 75.4318C340.296 75.432 340.296 75.4322 340.296 75.4324C340.296 75.4328 340.297 75.4333 340.297 75.4339C340.297 75.4351 340.297 75.4366 340.297 75.4385C340.297 75.4422 340.298 75.4471 340.298 75.4534C340.299 75.4659 340.3 75.4836 340.301 75.5062C340.304 75.5513 340.308 75.6163 340.312 75.6995C340.321 75.8659 340.33 76.1058 340.335 76.4075L338.335 76.4424C338.331 76.1636 338.322 75.9451 338.315 75.7982C338.311 75.7248 338.308 75.6693 338.306 75.6333C338.304 75.6152 338.303 75.6021 338.303 75.5939C338.303 75.5899 338.302 75.5871 338.302 75.5855C338.302 75.5848 338.302 75.5843 338.302 75.5842C338.302 75.5842 338.302 75.5842 338.302 75.5843C338.302 75.5843 338.302 75.5844 338.302 75.5845C338.302 75.5845 338.302 75.5846 338.302 75.5846C338.302 75.5847 338.302 75.5847 338.302 75.5847C338.302 75.5848 338.302 75.5848 339.299 75.5081ZM337.937 70.5323L340.194 75.0621L338.404 75.9541L336.147 71.4243L337.937 70.5323ZM322.068 67.2822L337.218 69.994L336.866 71.9627L321.715 69.251L322.068 67.2822ZM325.283 94.2121C321.122 93.7229 318.645 91.7432 317.436 88.9541C316.269 86.2624 316.349 82.9661 316.885 79.8921C317.425 76.7922 318.457 73.7721 319.344 71.5412C319.79 70.4222 320.202 69.4939 320.503 68.8438C320.654 68.5185 320.777 68.2625 320.864 68.0866C320.907 67.9986 320.941 67.9306 320.964 67.884C320.976 67.8607 320.985 67.8427 320.991 67.8302C320.995 67.824 320.997 67.8191 320.999 67.8157C321 67.8139 321 67.8125 321.001 67.8115C321.001 67.811 321.001 67.8105 321.002 67.8102C321.002 67.8098 321.002 67.8095 321.891 68.2666C322.781 68.7237 322.781 68.7236 322.781 68.7235C322.781 68.7236 322.781 68.7236 322.781 68.7238C322.781 68.7242 322.78 68.7249 322.78 68.726C322.779 68.7281 322.777 68.7317 322.774 68.7365C322.769 68.7463 322.762 68.7616 322.751 68.7821C322.731 68.8232 322.7 68.8853 322.659 68.9673C322.579 69.1313 322.462 69.3742 322.318 69.6853C322.029 70.3078 321.632 71.2016 321.203 72.2805C320.342 74.4452 319.363 77.3237 318.855 80.2356C318.343 83.1735 318.336 86.0021 319.271 88.1586C320.164 90.2178 321.977 91.8097 325.516 92.2257L325.283 94.2121ZM339.011 85.5451C338.183 87.9505 336.827 90.3722 334.598 92.0705C332.344 93.7873 329.304 94.6847 325.283 94.2121L325.516 92.2257C329.098 92.6468 331.602 91.8388 333.386 90.4796C335.194 89.102 336.369 87.0773 337.12 84.8944L339.011 85.5451ZM340.865 86.9608C339.61 86.7293 338.582 86.4537 337.741 86.1657L338.389 84.2737C339.127 84.5265 340.059 84.7784 341.227 84.994L340.865 86.9608ZM345.548 75.1055C347.846 76.9035 348.014 80.1924 347.125 82.6761C346.232 85.1714 344.006 87.5405 340.865 86.9608L341.227 84.994C342.97 85.3156 344.504 84.0639 345.242 82.0025C345.983 79.9295 345.651 77.7256 344.316 76.6808L345.548 75.1055ZM338.722 75.6348C339.532 75.0067 340.578 74.3812 341.759 74.1567C342.984 73.9238 344.307 74.1346 345.548 75.1055L344.316 76.6808C343.562 76.0911 342.834 75.9882 342.133 76.1215C341.387 76.2632 340.633 76.684 339.948 77.2151L338.722 75.6348Z" fill="black" mask="url(#path-49-inside-1_20_560)"/>
<path d="M337.493 82.056C337.493 82.056 342.519 70.978 340.965 66.2479C339.41 61.5178 331.876 66.1247 325.414 62.5116C325.414 62.5116 320.951 60.6858 318.398 64.0061C315.844 67.3264 318.716 73.1351 322.624 72.226C326.532 71.3093 332.594 69.3217 333.785 71.4788C334.984 73.6358 336.657 74.0518 336.657 74.0518L337.493 82.056Z" fill="black"/>
<path d="M339.921 109.859C339.921 109.859 339.699 107.024 339.373 104.327C339.048 101.631 337.427 97.5789 336.457 97.2477C335.488 96.9087 335.488 98.9348 335.488 98.9348C335.488 98.9348 331.92 95.5605 330.625 95.5605C329.33 95.5605 333.541 101.292 333.541 101.292C333.541 101.292 330.951 102.979 331.595 104.666C332.239 106.353 335.517 111.299 335.517 111.299L339.921 109.859Z" fill="#F9A28B"/>
<path d="M270.63 72.2344L271.718 75.9322" stroke="#2F011C" stroke-width="4" stroke-miterlimit="10"/>
<path d="M278.098 71.1934L273.472 72.6109" stroke="#2F011C" stroke-width="4" stroke-miterlimit="10"/>
<path d="M278.098 73.8518L274.345 73.7671" stroke="#2F011C" stroke-width="4" stroke-miterlimit="10"/>
<path d="M277.935 76.2631L274.109 75.1846" stroke="#2F011C" stroke-width="4" stroke-miterlimit="10"/>
<path d="M345.472 140.419L350.416 142.738" stroke="#2F011C" stroke-width="4" stroke-miterlimit="10"/>
<path d="M346.508 138.925L349.062 139.834" stroke="#2F011C" stroke-width="4" stroke-miterlimit="10"/>
<path d="M132.329 68.2129L135.8 69.8306" stroke="#2F011C" stroke-width="4" stroke-miterlimit="10"/>
<path d="M131.315 69.9536L135.563 71.1939" stroke="#2F011C" stroke-width="4" stroke-miterlimit="10"/>
<path d="M131.433 72.3188L135.445 72.6886" stroke="#2F011C" stroke-width="4" stroke-miterlimit="10"/>
<path d="M198.652 24.0779C198.652 24.0779 198.356 20.3416 193.39 21.4047" stroke="black" stroke-width="4" stroke-miterlimit="10"/>
<path d="M195.647 24.1396C195.647 24.1396 195.965 22.229 197.882 22.3138" stroke="black" stroke-width="4" stroke-miterlimit="10"/>
<path d="M95.9736 127.716H266.774V132.199H95.9736V127.716Z" fill="#CBCBCB"/>
<path d="M127.185 239.142L117.859 131.082" stroke="#228652" stroke-width="4" stroke-miterlimit="10"/>
<path d="M111.642 131.83L103.264 238.149" stroke="#228652" stroke-width="4" stroke-miterlimit="10"/>
<path d="M125.275 217.727L104.7 217.981" stroke="#228652" stroke-width="4" stroke-miterlimit="10"/>
<path d="M127.185 239.142L117.859 131.082" stroke="#979797" stroke-width="4" stroke-miterlimit="10"/>
<path d="M111.642 131.83L103.264 238.149" stroke="#979797" stroke-width="4" stroke-miterlimit="10"/>
<path d="M125.275 217.727L104.7 217.981" stroke="#228652" stroke-width="4" stroke-miterlimit="10"/>
<path d="M259.476 239.513L250.143 131.453" stroke="#979797" stroke-width="4" stroke-miterlimit="10"/>
<path d="M243.926 132.2L235.555 238.519" stroke="#979797" stroke-width="4" stroke-miterlimit="10"/>
<path d="M257.559 218.104L236.991 218.351" stroke="#228652" stroke-width="4" stroke-miterlimit="10"/>
<path d="M135.445 127.716C135.445 127.716 132.81 116.515 124.439 117.008C116.068 117.509 114.151 127.716 114.151 127.716H135.445Z" fill="#979797"/>
<path d="M129.613 91.4622L125.401 114.281C125.327 114.681 124.95 114.943 124.565 114.866C124.202 114.789 123.958 114.442 124.002 114.065L126.423 91.1155C126.467 90.7226 126.8 90.4299 127.178 90.4607L128.969 90.5917C129.391 90.6225 129.694 91.0308 129.613 91.4622Z" fill="#979797"/>
<path d="M130.338 88.7964C129.247 88.7964 128.362 87.8755 128.362 86.7395C128.362 85.6035 129.247 84.6826 130.338 84.6826C131.429 84.6826 132.314 85.6035 132.314 86.7395C132.314 87.8755 131.429 88.7964 130.338 88.7964Z" fill="#979797"/>
<path d="M149.16 100.183L135.511 87.7259C135.164 87.41 134.638 87.4408 134.327 87.7952C134.024 88.1419 134.031 88.6657 134.342 89.0047L146.036 101.731C146.221 101.932 146.495 102.032 146.761 101.993L148.715 101.724C149.433 101.631 149.715 100.684 149.16 100.183Z" fill="#979797"/>
<path d="M159.684 110.629L146.317 114.558C146.317 114.558 141.736 104.682 150.122 102.625C158.152 100.638 159.684 110.629 159.684 110.629Z" fill="#979797"/>
<path d="M155.438 112.295C155.424 112.222 155.409 112.157 155.395 112.103L150.848 113.446C150.883 113.505 150.926 113.573 150.975 113.648C151.139 113.894 151.377 114.211 151.679 114.498C152.286 115.073 153.114 115.501 154.115 115.082C155.135 114.656 155.439 113.882 155.493 113.198C155.52 112.852 155.483 112.531 155.438 112.295Z" fill="white" stroke="black" stroke-width="0.4"/>
<path d="M358.232 192.92L358.076 218.689C358.062 221.486 355.9 223.758 353.214 223.797L333.26 224.105" stroke="#228652" stroke-width="4" stroke-miterlimit="10"/>
<path d="M351.489 181.35C351.489 181.35 356.093 184.516 357.159 188.537" stroke="#228652" stroke-width="4" stroke-miterlimit="10"/>
<path d="M112.02 60.8398L109.429 62.7658L105.921 58.729" fill="white"/>
<path d="M112.02 60.8398L109.429 62.7658L105.921 58.729" stroke="#7BD53D" stroke-miterlimit="10"/>
<path d="M77.8035 122.131C77.8035 122.131 82.7327 127.778 85.6932 149.603C88.6537 171.427 85.3824 186.958 85.3824 186.958L79.0913 186.573C79.0987 186.573 79.8388 125.282 77.8035 122.131Z" fill="#6DED02"/>
<path d="M81.134 134.01C81.134 134.01 84.0946 175.788 81.319 191.58" stroke="#0AC41E" stroke-width="2" stroke-miterlimit="10"/>
<path d="M57.9605 131.954C57.9605 131.954 64.2072 135.945 72.8889 156.051C81.5707 176.15 82.592 192.012 82.592 192.012L76.4489 193.468C76.4489 193.468 60.7582 134.388 57.9605 131.954Z" fill="#6DED02"/>
<path d="M64.3331 142.393C64.3331 142.393 78.3586 181.658 79.9128 197.628" stroke="#0AC41E" stroke-width="2" stroke-miterlimit="10"/>
<path d="M97.2023 142.869C97.2023 142.869 90.4449 148.031 85.1307 169.516C79.8166 191.002 82.9769 206.802 82.9769 206.802L91.1332 207.018C91.1332 207.018 94.3528 145.812 97.2023 142.869Z" fill="#6DED02"/>
<path d="M92.088 154.395C92.088 154.395 85.4119 195.787 87.921 211.803" stroke="#0AC41E" stroke-width="2" stroke-miterlimit="10"/>
<path d="M103.923 161.868C103.923 161.868 98.9712 163.971 92.4951 176.405C86.0189 188.838 85.6266 199.123 85.6266 199.123L90.6373 200.571C90.6373 200.571 101.725 163.231 103.923 161.868Z" fill="#6DED02"/>
<path d="M99.0452 168.177C99.0452 168.177 88.7648 192.705 87.9359 203.013" stroke="#0AC41E" stroke-width="2" stroke-miterlimit="10"/>
<path d="M55 165.311C55 165.311 60.1957 165.141 68.574 172.938C76.9523 180.734 79.0173 189.1 79.0173 189.1L74.3396 192.235C74.3396 192.235 57.3758 165.588 55 165.311Z" fill="#6DED02"/>
<path d="M60.81 168.646C60.81 168.646 74.8873 184.994 77.3816 193.214" stroke="#0AC41E" stroke-width="2" stroke-miterlimit="10"/>
<path d="M96.2993 185.802L93.3388 237.402H73.3626L68.5518 184.262L96.2993 185.802Z" fill="#979797"/>
<path d="M95.9293 194.654L69.4769 193.691L68.5518 184.262L96.2993 185.802L95.9293 190.04" stroke="#002F7A" stroke-width="2" stroke-miterlimit="10"/>
<defs>
<linearGradient id="paint0_linear_20_560" x1="183.235" y1="272.742" x2="183.571" y2="228.663" gradientUnits="userSpaceOnUse">
<stop stop-color="white" stop-opacity="0"/>
<stop offset="1" stop-color="#82A9FF" stop-opacity="0.21"/>
</linearGradient>
</defs>
</svg>
